# xmcd CD database file
#
# Track frame offsets:
#	150
#	9200
#	23192
#	44052
#	60212
#	77707
#	95442
#	117325
#	143620
#	164942
#	191035
#	212515
#	226897
#	245547
#	263380
#	279137
#
# Disc length: 3949 seconds
#
# Revision: 0
# Processed by: cddbd v1.5.2PL0 Copyright (c) Steve Scherf et al.
# Submitted via: CDex 1.51
#
DISCID=cd0f6b10
DTITLE=Bobby Hackett - Dr. Jazz Vol. 10
DYEAR=1952
DGENRE=Jazz
TTITLE0=Way Down Yonder In New Orleans
TTITLE1=Muskrat Ramble
TTITLE2=Tin Roof Blues
TTITLE3=Please Don't Talk About Me When I'm Gone
TTITLE4=There's Danger In Your Eyes, Cherie
TTITLE5=Sunday
TTITLE6=Skeleton Jangle (Wolverine Blues)
TTITLE7=Basin Street Blues
TTITLE8=Perdido
TTITLE9=Wolverine Blues
TTITLE10=Solitaire
TTITLE11=Jitterbug Waltz
TTITLE12=When The Saints Go Marching In
TTITLE13=Sugar
TTITLE14=At The Jazz Band Ball
TTITLE15=Original Dixieland One Step
EXTD=YEAR: 1952
EXTT0=
EXTT1=
EXTT2=
EXTT3=
EXTT4=
EXTT5=
EXTT6=
EXTT7=
EXTT8=
EXTT9=
EXTT10=
EXTT11=
EXTT12=
EXTT13=
EXTT14=
EXTT15=
PLAYORDER=
